<svg width="43" height="55" viewBox="0 0 43 55" fill="none" xmlns="http://www.w3.org/2000/svg">
<path id=" Mint" opacity="0.1" d="M41.6942 27.8317C41.6942 27.8317 41.5597 22.781 44.911 21.1445C48.2624 19.508 48.799 19.6556 48.799 19.6556C48.799 19.6556 49.4687 21.1445 49.0666 21.7125C48.6645 22.2821 48.4045 21.5617 48.4045 21.4285C48.4045 21.2953 49.2087 19.9621 51.2691 19.9621C53.3295 19.9621 54.4103 21.0563 54.4103 21.0563C54.4103 21.0563 54.3846 22.1762 53.8071 22.6832C53.8071 22.6832 54.637 21.5889 55.9688 21.6692C55.9688 21.6692 57.8281 23.296 58.457 24.4961C58.457 24.4961 56.8486 26.8707 53.9825 27.137C53.9825 27.137 55.4397 27.4306 55.8176 27.8301C55.8176 27.8301 50.7657 29.7779 49.7604 28.8698C48.7552 27.9617 50.2124 27.989 50.6402 28.443C51.068 28.8971 51.9221 30.203 51.9221 30.203C51.9221 30.203 47.8255 31.3502 47.0213 29.3222L47.2481 30.9234C47.2481 30.9234 43.3767 30.1501 42.246 28.8425C41.1153 27.5349 44.9352 25.5871 46.8958 25.1074C48.8565 24.6277 52.7021 24.2812 53.8585 24.5202M40.689 27.2974C40.689 27.2974 38.7283 23.4565 34.6575 23.0827C34.6575 23.0827 34.0543 24.4159 34.8585 25.1909C34.8585 25.1909 33.4013 22.3366 28.4234 23.6699C28.4234 23.6699 29.3289 25.9642 29.9819 25.9112C30.6349 25.8583 30.7105 24.8972 30.0076 24.8716C29.3032 24.8443 26.3252 24.8587 24.7047 26.7118C24.7047 26.7118 25.9609 27.7258 26.9661 27.5654C26.9661 27.5654 25.1068 27.7258 23.5483 31.9406C23.5483 31.9406 26.9661 33.4873 28.827 32.7942C28.827 32.7942 28.1739 34.8222 27.4196 34.928C27.4196 34.928 31.6417 34.7676 32.1194 33.2209C32.5971 31.6743 31.0385 32.2599 31.1398 32.7412C31.2411 33.2226 32.2962 34.928 32.2962 34.928C32.2962 34.928 35.0611 35.0885 36.3173 32.7942C36.3173 32.7942 36.6695 34.2349 36.0663 34.7147C36.0663 34.7147 41.1939 31.14 41.0427 28.366C40.8915 25.592 29.8791 28.6885 28.694 29.9271M31.3378 25.8583C31.3378 25.8583 34.5048 26.7648 34.405 28.4719M37.1698 28.4719C37.1698 28.4719 36.5667 30.7662 33.8019 31.3534M51.0937 22.4248C51.0937 22.4248 48.0402 23.4934 47.7832 25.2887M45.363 26.5514C45.363 26.5514 49.4853 27.0857 51.5457 26.338M44.4424 20.291C44.4424 20.291 46.7885 16.6634 45.5142 13.7466C45.5142 13.7466 43.9058 14.3867 43.9058 14.9563C43.9058 14.9563 45.2466 9.19485 43.3026 6.56201C43.3026 6.56201 42.2974 6.98878 42.1628 7.91292C42.1628 7.91292 39.2801 3.4318 38.1418 2.93282C38.1418 2.93282 37.5054 4.14255 37.7397 5.60096C37.7397 5.60096 35.9635 1.6878 33.9198 1.19043C33.9198 1.19043 33.1488 2.64884 33.4164 3.64518C33.4164 3.64518 30.065 1.26263 28.9252 2.11618C28.9252 2.11618 27.92 4.9977 28.9252 6.49141C28.9252 6.49141 28.2208 6.20743 27.6524 6.59891C27.6524 6.59891 27.1158 10.3693 30.4006 12.6106C30.4006 12.6106 28.8255 12.3973 28.6909 12.8946C28.5564 13.392 29.2276 15.9895 32.78 17.626C32.78 17.626 31.1383 17.6966 31.037 17.9822C31.037 17.9822 33.2486 21.8954 34.4881 22.4281M41.2241 25.1283C41.2241 25.1283 34.1193 10.0468 33.5161 7.91292C32.913 5.77905 35.6612 5.74376 36.3641 7.45085C37.6294 10.5233 36.3641 15.8532 36.3641 15.8532M41.9285 14.9916C41.9285 14.9916 41.8272 20.1498 39.8167 21.536M39.8167 31.7802C39.8167 31.7802 37.3195 34.6072 37.6218 37.1149C37.6218 37.1149 39.8833 37.4357 40.4365 36.741C40.4365 36.741 38.1751 38.1289 38.225 42.7159C38.225 42.7159 39.6323 42.8763 40.4365 41.7548C40.4365 41.7548 38.225 43.9416 40.0843 48.0505C40.0843 48.0505 41.6413 46.9307 41.6927 45.7562C41.6927 45.7562 40.8885 48.4773 43.5536 51.4118C43.5536 51.4118 44.4076 51.038 44.71 49.7047C44.71 49.7047 46.2186 52.3183 48.4801 53.3323C48.4801 53.3323 50.7415 51.5177 50.5404 47.6238C50.5404 47.6238 51.647 48.3714 52.7021 48.5848C52.7021 48.5848 54.1095 45.9712 53.0044 42.5554C53.0044 42.5554 54.2606 43.5165 54.8139 43.1956C54.8139 43.1956 54.0097 37.54 51.396 36.4731C51.396 36.4731 52.9047 36.6335 53.2055 36.2068C53.2055 36.2068 51.591 31.3518 48.5813 30.925M41.9285 29.6463C41.9285 29.6463 44.2111 31.6197 45.8936 38.1288C47.5761 44.638 48.1792 46.6114 47.5262 47.5195C46.8732 48.4276 45.1635 48.373 45.2648 46.9852C45.366 45.5974 45.4658 40.3157 47.3765 39.1428M45.363 33.0076C45.363 33.0076 43.4024 34.4483 42.9504 37.2224C42.4984 39.9964 42.6481 41.3313 42.6481 41.3313M46.6207 16.3072C46.6207 16.3072 47.9283 13.177 50.8428 11.8084C50.8428 11.8084 51.647 12.1293 51.7483 14.0578C51.7483 14.0578 53.2569 9.90561 56.7745 9.58472C60.2937 9.26384 60.8968 10.2249 60.8968 10.2249C60.8968 10.2249 62.6564 13.5396 60.8968 12.9139C59.1372 12.2882 62.0033 10.5458 63.5105 10.6517C65.0176 10.7575 69.4422 12.0748 71.6538 14.9916L70.6485 17.3742C70.6485 17.3742 73.3635 16.3072 74.1677 16.5206C74.9719 16.734 78.9929 22.1056 79.2952 25.1283C79.2952 25.1283 76.2794 28.9003 72.0559 29.0062C72.0559 29.0062 71.5525 30.4983 72.458 31.5652C72.458 31.5652 63.5271 32.6674 65.4877 30.7469C67.4483 28.8265 65.7901 33.8419 66.4265 34.9296C66.4265 34.9296 60.7457 36.1538 58.4585 33.8066L57.5787 35.9404C57.5787 35.9404 54.5237 35.5506 52.5525 33.006M74.6695 23.0827C67.5315 20.6825 59.488 22.7297 59.488 22.7297C59.488 22.7297 60.1924 27.0825 66.1241 28.0451M67.9336 17.1608C67.9336 17.1608 64.7168 18.6609 64.3147 22.5003M58.4585 14.4926C58.4585 14.4926 56.2711 15.7425 55.2659 19.6524M31.8412 20.6648C31.8412 20.6648 26.8649 15.489 22.221 17.8346L23.0192 19.3588C23.0192 19.3588 20.1274 17.4207 15.6408 18.486C11.1542 19.5513 11.0544 21.8617 11.0544 21.8617C11.0544 21.8617 12.6175 24.7657 13.2478 23.2575C13.8782 21.7494 9.85719 23.1131 8.76123 23.6907C7.66377 24.2683 4.87325 26.6781 4.27463 28.6018C4.27463 28.6018 7.56551 28.7928 7.66528 29.1778C7.76505 29.5629 2.67983 30.9106 1.98145 35.9661C1.98145 35.9661 3.67601 37.8433 6.46805 38.6134C6.46805 38.6134 8.76123 38.3438 8.96077 37.516C8.96077 37.516 8.82775 39.2551 8.3289 39.7204C8.3289 39.7204 9.52462 41.02 13.3476 41.5655C13.3476 41.5655 18.0806 40.3766 16.6596 39.5664C15.2387 38.7562 16.3241 42.3051 15.541 43.2983C15.541 43.2983 17.8342 45.031 22.4871 44.2609C22.4871 44.2609 24.6805 43.5871 25.4787 41.9827C25.4787 41.9827 25.778 43.9721 25.5119 44.646C25.5119 44.646 32.9901 43.2341 33.5555 39.3819C34.1208 35.5297 34.2538 40.0237 34.2538 40.5692C34.2538 40.5692 37.776 38.676 38.1086 36.7491M22.7924 30.0362C22.7924 30.0362 12.8064 30.1068 5.70164 35.2297M8.58286 28.0451C8.58286 28.0451 15.219 28.8858 17.2295 31.8091M22.3238 31.8091C22.3238 31.8091 21.8552 34.3761 18.3028 37.8625M17.6316 23.7052C17.6316 23.7052 19.5076 23.349 22.3238 23.7052C25.1385 24.0613 25.7417 24.9807 25.7417 24.9807" stroke="#F54748" stroke-width="2" stroke-miterlimit="10"/>
</svg>
